<svg version="1.1"
	 xmlns="http://www.w3.org/2000/svg" xmlns:xlink="http://www.w3.org/1999/xlink" xmlns:a="http://ns.adobe.com/AdobeSVGViewerExtensions/3.0/"
	 x="0px" y="0px" width="70.6px" height="45.4px" viewBox="0 0 70.6 45.4" enable-background="new 0 0 70.6 45.4"
	 xml:space="preserve">
<defs>
</defs>
<path d="M70.2,1.6c0-0.7-0.6-1.3-1.3-1.3c-1.9-0.1-3.9-0.2-5.8-0.2c-4.1,0-8.1,0.2-12.1,0.2c-0.8,0-1.5,0-2.3,0
	c-2.3,0-4.9-0.1-7.4-0.1c-2.5,0-5,0-7.2,0c-2.5,0-4.7,0-6-0.1C24.4,0,20.7,0,16.7,0C12.2,0,7.2,0,1.6,0C0.8,0,0.1,0.7,0.1,1.5
	c0,4.3,0.1,9.5,0.1,14.3c0,1.9,0,3.8-0.1,5.5C0.1,25,0,28.9,0,32.7c0,3.7,0,7.2,0,10.3c-0.1,0.4-0.1,0.9,0.2,1.2
	c0.2,0.4,0.7,0.7,1.2,0.7c3.7,0.1,8.2,0.2,12.9,0.2c5.2,0,10.6,0,15.5,0c3.3,0,6.3,0,8.9,0.1c1.6,0,3.5,0.1,5.5,0.1
	c5.1,0,11.1-0.1,16-0.1c1.8,0,3.5,0,4.9,0c1.4,0,2.6,0.1,3.5,0.2c0.4,0,0.8-0.1,1.1-0.3c0.3-0.3,0.5-0.6,0.5-1
	c0.1-3.8,0.3-8.3,0.3-12.2c0-5.5,0.1-10.7,0.1-15.9C70.6,11.2,70.5,6.6,70.2,1.6z M67.8,15.9c0,5.2-0.1,10.4-0.1,15.9
	c0,2.6-0.1,5.5-0.2,8.2C61.9,33.5,55.8,27.8,51,21.5c1.1-1.1,2.1-2.1,3.2-3.2c3.8-3.8,7.5-7.4,10.4-10.2c1.2-1.1,2.2-2.1,3-2.9
	C67.7,8.9,67.8,12.4,67.8,15.9z M27.9,3c1.5,0.1,3.6,0.1,6.1,0.1c2.2,0,4.7,0,7.2,0c2.6,0,5.2,0,7.4,0.1c0.8,0,1.6,0,2.4,0
	C55,3.2,59,3,63,3c0.9,0,1.8,0,2.7,0c-1.7,1.6-4.2,4-7.1,6.9C50.4,18,39,29.5,35.6,32.8c-2.1-1.9-7.3-6.6-13.2-12.2
	c-3.4-3.2-6.9-6.7-10.2-10C9.5,7.9,7,5.2,4.9,2.9c4.3,0,8.2,0,11.8,0C20.7,2.8,24.4,2.9,27.9,3z M2.9,32.7c0-3.8,0-7.7,0.2-11.4
	c0.1-1.7,0.1-3.6,0.1-5.6C3.1,12.2,3,8.4,3,5c2.3,2.5,4.9,5.4,7.8,8.3c2.2,2.3,4.6,4.5,6.9,6.8c-0.4,0.4-0.9,1-1.4,1.6
	c-1.2,1.4-2.6,3.2-4.2,5.3C9,31,5.3,35.8,2.9,39.1C2.9,37,2.9,34.9,2.9,32.7z M60.2,42.3c-5,0-10.9,0.1-16,0.1c-2,0-3.8,0-5.4-0.1
	c-2.6-0.1-5.7-0.1-9-0.1c-4.9,0-10.3,0-15.5,0c-3.6,0-7.1,0-10.3-0.1c1.6-2.2,4.2-5.6,6.8-9c1.9-2.4,3.8-4.9,5.4-7
	c0.8-1,1.6-2,2.2-2.7c0.5-0.6,0.9-1.1,1.3-1.4c8,7.6,15,13.8,15,13.8c0.6,0.5,1.4,0.5,2-0.1c0,0,0.1-0.1,0.4-0.4
	c1.3-1.3,6.3-6.3,11.9-11.9c5.1,6.6,11.3,12.4,16.8,18.8c-0.2,0-0.3,0-0.5,0C63.7,42.3,62,42.3,60.2,42.3z"/>
</svg>
